<?xml version="1.0"?>
<svg xmlns="http://www.w3.org/2000/svg" height="512px" viewBox="-150 -20 661 661.33331" width="512px"><g><path d="m341.5 90h-22.003906l-18.234375-82.167969c-1.015625-4.574219-5.074219-7.832031-9.761719-7.832031h-240c-4.6875 0-8.746094 3.257812-9.761719 7.832031l-18.238281 82.167969h-22c-5.523438 0-10 4.476562-10 10v90c0 5.523438 4.476562 10 10 10h10.25l9.75 380.25c.136719 5.421875 4.574219 9.75 10 9.75v20c0 5.523438 4.476562 10 10 10h260c5.523438 0 10-4.476562 10-10v-20c5.425781 0 9.863281-4.328125 10-9.75l9.75-380.25h10.25c5.523438 0 10-4.476562 10-10v-90c0-5.523438-4.476562-10-10-10zm-282.003906-70h224.003906l15.546875 70h-255.078125zm232.003906 580h-240v-10h240zm10.25-30h-260.5l-9.492188-370h189.742188v34.339844l-45.152344 27.089844c-3.007812 1.808593-4.847656 5.058593-4.847656 8.570312v140c0 5.523438 4.476562 10 10 10h100c5.523438 0 10-4.476562 10-10v-140c0-3.511719-1.839844-6.761719-4.847656-8.570312l-45.152344-27.089844v-34.339844h69.742188zm-70.25-318.339844 40 24v124.339844h-80v-124.339844zm100-71.660156h-320v-70h320zm0 0" data-original="#000000" class="active-path" data-old_color="#808081" fill="#808080"/><path d="m211.5 380h10c5.523438 0 10-4.476562 10-10s-4.476562-10-10-10h-10c-5.523438 0-10 4.476562-10 10s4.476562 10 10 10zm0 0" data-original="#000000" class="active-path" data-old_color="#808081" fill="#808080"/><path d="m244.398438 377.101562c1.921874 1.824219 4.453124 2.859376 7.101562 2.898438 1.308594-.015625 2.597656-.289062 3.796875-.800781 2.515625-.910157 4.492187-2.886719 5.402344-5.402344.511719-1.199219.785156-2.488281.800781-3.796875-.039062-2.648438-1.074219-5.179688-2.902344-7.101562-.96875-.882813-2.089844-1.589844-3.300781-2.097657-1.820313-.800781-3.851563-1.011719-5.800781-.601562-.625.109375-1.230469.3125-1.796875.601562-.636719.21875-1.242188.523438-1.800781.898438-.523438.371093-1.023438.769531-1.5 1.199219-1.824219 1.921874-2.859376 4.453124-2.898438 7.101562.015625 1.308594.289062 2.597656.800781 3.796875.507813 1.210937 1.214844 2.332031 2.097657 3.304687zm0 0" data-original="#000000" class="active-path" data-old_color="#808081" fill="#808080"/><path d="m171.5 510h-110c-5.523438 0-10 4.476562-10 10s4.476562 10 10 10h110c5.523438 0 10-4.476562 10-10s-4.476562-10-10-10zm0 0" data-original="#000000" class="active-path" data-old_color="#808081" fill="#808080"/><path d="m211.5 510h-10c-5.523438 0-10 4.476562-10 10s4.476562 10 10 10h10c5.523438 0 10-4.476562 10-10s-4.476562-10-10-10zm0 0" data-original="#000000" class="active-path" data-old_color="#808081" fill="#808080"/><path d="m191.5 120c-5.523438 0-10 4.476562-10 10s4.476562 10 10 10h120c5.523438 0 10-4.476562 10-10s-4.476562-10-10-10zm0 0" data-original="#000000" class="active-path" data-old_color="#808081" fill="#808080"/><path d="m161.5 120h-10c-5.523438 0-10 4.476562-10 10s4.476562 10 10 10h10c5.523438 0 10-4.476562 10-10s-4.476562-10-10-10zm0 0" data-original="#000000" class="active-path" data-old_color="#808081" fill="#808080"/></g> </svg>
