<svg width="141.732" height="141.732" xmlns="http://www.w3.org/2000/svg">

 <g>
  <title>background</title>
  <rect fill="none" id="canvas_background" height="402" width="582" y="-1" x="-1"/>
 </g>
 <g>
  <title>Layer 1</title>
  <path fill="#7f7f7f" id="svg_1" d="m140.313995,37.653999c0,-20.796 -16.911995,-37.653999 -37.776993,-37.653999c-13.744003,0 -25.770004,7.317 -32.379005,18.254999c-6.608997,-10.937999 -18.636997,-18.254999 -32.380997,-18.254999c-20.865,0 -37.777,16.858 -37.777,37.653999c0,10.820999 4.588,20.57 11.922,27.438004l-0.01,0l54.084002,51.584c0.991997,1.187996 2.479996,1.945 4.147995,1.945c1.545006,0 2.936005,-0.653 3.920006,-1.695999l54.346001,-51.833l-0.016006,0c7.335007,-6.867004 11.919998,-16.616001 11.919998,-27.438004"/>
 </g>
</svg>